<?xml version="1.0" standalone="no"?>
<!DOCTYPE svg PUBLIC "-//W3C//DTD SVG 20010904//EN"
 "http://www.w3.org/TR/2001/REC-SVG-20010904/DTD/svg10.dtd">
<svg version="1.0" xmlns="http://www.w3.org/2000/svg"
 width="1114.000000pt" height="1114.000000pt" viewBox="0 0 1114.000000 1114.000000"
 preserveAspectRatio="xMidYMid meet">
<metadata>
Created by potrace 1.11, written by Peter Selinger 2001-2013
</metadata>
<g transform="translate(0.000000,1114.000000) scale(0.100000,-0.100000)"
fill="#000000" stroke="none">
<path d="M5110 8901 c0 -6 4 -13 10 -16 6 -3 7 1 4 9 -7 18 -14 21 -14 7z"/>
<path d="M7033 8869 c-210 -39 -300 -296 -160 -455 23 -26 37 -50 33 -59 -13
-36 -118 -205 -126 -205 -5 0 -7 -7 -4 -15 4 -8 1 -15 -5 -15 -6 0 -11 -7 -11
-15 0 -8 -5 -15 -11 -15 -5 0 -8 -4 -5 -8 3 -5 -4 -19 -15 -30 -10 -12 -19
-23 -19 -24 -1 -15 -14 -48 -19 -48 -4 0 -22 -28 -40 -62 -34 -67 -53 -100
-61 -108 -4 -4 -24 -39 -54 -95 -6 -11 -14 -22 -17 -25 -3 -3 -8 -13 -12 -23
-4 -10 -11 -16 -16 -12 -5 3 -13 0 -17 -6 -4 -8 -3 -9 4 -5 19 11 14 -2 -24
-70 -21 -37 -40 -61 -46 -57 -6 3 -8 1 -4 -5 8 -13 -50 -118 -63 -115 -6 2 -8
-3 -5 -11 3 -7 -2 -20 -10 -29 -8 -8 -13 -17 -10 -19 2 -3 -2 -11 -11 -18 -8
-7 -15 -19 -15 -26 0 -8 -4 -14 -10 -14 -5 0 -9 -3 -8 -7 4 -19 -15 -41 -30
-36 -13 4 -14 3 -3 -5 19 -13 -4 -56 -26 -48 -13 5 -14 4 -3 -9 12 -14 7 -19
-13 -16 -5 1 -6 -3 -3 -8 10 -15 -16 -62 -30 -57 -8 3 -11 0 -8 -8 5 -14 -50
-121 -67 -132 -5 -3 -9 -14 -9 -25 0 -10 -4 -19 -8 -19 -5 0 -15 -12 -23 -27
-8 -16 -21 -34 -29 -41 -8 -8 -9 -11 -2 -7 7 3 1 -10 -12 -30 -14 -20 -28 -45
-31 -56 -4 -10 -11 -19 -16 -19 -6 0 -8 -4 -4 -9 3 -5 1 -12 -4 -16 -6 -3 -20
-25 -32 -49 l-21 -43 -42 12 c-22 7 -47 10 -55 7 -9 -3 -11 0 -6 8 6 9 4 11
-6 4 -8 -4 -27 -9 -44 -10 -16 -1 -31 -3 -32 -4 -2 -1 -6 -3 -10 -4 -22 -4
-73 -32 -73 -40 0 -4 -7 -6 -15 -2 -8 3 -14 2 -13 -2 4 -13 -49 -61 -58 -53
-13 13 -76 50 -96 57 -10 4 -18 11 -18 16 0 5 -4 7 -9 3 -5 -3 -15 1 -23 8 -7
7 -26 18 -41 25 -17 7 -25 17 -21 24 4 7 3 8 -4 4 -14 -9 -243 115 -250 135
-2 5 -8 7 -13 4 -12 -8 -60 25 -53 36 3 5 -1 6 -9 3 -8 -3 -21 1 -28 8 -8 7
-21 14 -29 16 -8 2 -18 8 -21 14 -3 5 -10 10 -15 10 -21 1 -33 11 -27 21 3 5
1 7 -5 3 -13 -8 -63 14 -56 25 3 5 -1 9 -9 9 -8 0 -29 7 -47 16 -24 12 -29 19
-19 25 8 5 10 9 5 9 -6 0 -1 7 10 15 16 13 16 14 1 9 -12 -4 -16 -2 -12 7 8
24 13 99 6 99 -4 0 -7 9 -8 20 -2 29 -35 100 -46 100 -5 0 -6 7 -3 16 3 8 2
12 -4 9 -6 -3 -10 -1 -10 4 0 6 -7 11 -15 11 -8 0 -15 4 -15 9 0 5 -25 21 -56
36 -107 52 -240 31 -319 -52 -33 -34 -59 -70 -61 -81 0 -4 -4 -14 -8 -23 -4
-9 -9 -36 -11 -60 -2 -24 -4 -46 -5 -49 -1 -3 -1 -9 0 -15 1 -5 3 -18 5 -27 6
-28 49 -118 57 -118 15 0 -8 -36 -51 -81 -25 -26 -71 -75 -101 -110 -30 -35
-66 -75 -80 -90 -14 -15 -50 -56 -80 -90 -30 -34 -77 -87 -105 -117 -27 -31
-59 -65 -70 -78 -11 -12 -45 -50 -75 -84 -30 -35 -73 -82 -95 -106 -56 -59
-87 -94 -112 -128 -13 -17 -23 -26 -23 -21 0 5 -11 -7 -25 -28 -14 -20 -29
-37 -33 -37 -4 0 -18 -16 -31 -35 -27 -40 -26 -40 -77 -18 -22 9 -55 19 -74
21 -19 2 -41 9 -49 15 -12 9 -13 9 -7 0 5 -9 -2 -13 -24 -13 -17 0 -46 -7 -65
-14 -19 -8 -35 -12 -35 -9 0 3 -12 -6 -26 -21 -15 -14 -30 -26 -35 -26 -10 0
-72 -96 -76 -118 -2 -9 -6 -35 -9 -57 -3 -22 -7 -45 -9 -52 -2 -7 0 -15 5 -18
6 -4 10 -15 10 -26 0 -22 35 -96 56 -117 8 -7 12 -18 9 -23 -4 -5 2 -6 11 -2
10 4 15 2 11 -3 -11 -19 104 -67 166 -70 31 -1 65 -8 75 -15 16 -13 16 -13 2
5 -14 18 -13 19 12 14 17 -3 26 -1 25 6 -1 6 3 10 10 9 6 -1 17 4 23 12 7 8
18 15 25 15 14 0 91 81 88 92 -2 5 2 8 8 8 5 0 7 5 4 10 -3 6 -2 10 3 10 8 0
10 7 13 48 1 9 5 22 9 27 6 10 6 56 -1 85 -2 8 2 14 9 12 8 -1 11 2 7 8 -3 6
-11 8 -16 5 -5 -4 -9 1 -9 9 0 8 -11 35 -25 60 l-25 45 38 41 c20 23 56 63 80
88 23 26 42 50 42 54 0 5 8 8 17 8 9 0 14 3 10 6 -8 9 44 64 55 58 5 -3 7 -1
6 4 -3 9 41 66 98 128 16 16 45 49 65 72 20 22 40 38 44 34 5 -4 5 -2 1 5 -3
6 4 19 16 27 12 9 20 16 16 16 -3 0 15 22 41 49 25 27 69 74 96 106 28 31 61
70 75 85 133 147 165 183 168 191 2 5 10 9 18 9 9 0 13 4 10 9 -3 4 2 15 12
24 15 14 20 14 52 0 53 -24 60 -25 127 -26 70 0 153 34 199 82 l26 28 44 -24
c25 -14 41 -29 38 -35 -4 -6 -3 -8 3 -5 16 10 74 -16 68 -31 -2 -7 0 -10 5 -7
12 8 128 -53 153 -79 9 -10 17 -16 17 -11 0 4 6 2 13 -4 8 -6 16 -9 19 -6 3 3
11 -1 18 -10 7 -8 18 -15 25 -15 8 0 15 -3 17 -8 2 -4 33 -23 71 -42 37 -19
67 -38 67 -43 0 -4 4 -6 9 -3 5 3 14 -1 21 -9 7 -8 19 -15 27 -15 8 0 11 -5 7
-12 -4 -7 -3 -8 4 -4 17 10 52 -12 52 -32 0 -13 2 -14 9 -4 6 11 11 10 25 -3
9 -9 16 -14 16 -10 0 3 13 -3 29 -14 16 -12 34 -21 39 -21 6 0 8 -12 6 -27 -3
-16 -6 -36 -7 -45 -1 -10 -4 -18 -8 -18 -3 0 -2 -21 3 -47 5 -27 10 -56 11
-65 4 -24 67 -119 83 -125 8 -3 14 -12 14 -20 0 -8 4 -12 9 -9 5 3 28 -5 52
-18 38 -21 55 -24 123 -21 53 1 81 7 87 16 5 8 9 11 9 6 0 -4 11 0 25 9 13 8
30 12 37 8 7 -4 10 -4 6 0 -4 5 4 20 18 34 13 15 24 30 24 35 0 4 5 5 10 2 6
-3 10 3 10 14 0 12 5 21 10 21 6 0 10 9 10 20 0 11 5 20 11 20 5 0 7 4 4 10
-3 5 -2 18 3 27 11 21 -6 173 -19 173 -5 0 -9 9 -9 19 0 10 -7 22 -16 25 -9 4
-14 13 -10 22 3 8 2 13 -3 10 -4 -3 -16 3 -25 12 -13 16 -14 23 -3 45 6 15 18
27 25 27 7 0 10 5 7 11 -4 5 0 18 8 27 9 9 16 20 16 25 1 17 32 67 42 67 6 0
8 4 4 9 -3 5 2 16 10 24 8 9 15 19 15 24 1 18 97 172 104 166 4 -4 4 0 0 10
-3 10 -1 17 5 17 6 0 11 7 11 15 0 8 5 15 10 15 6 0 9 3 8 8 -3 7 90 172 102
182 3 3 14 22 24 43 10 22 22 35 28 31 7 -4 8 -2 4 5 -7 11 30 82 46 89 5 2 6
8 2 13 -3 5 2 12 10 15 9 3 13 10 10 16 -3 5 0 17 8 26 15 18 64 100 85 142
16 31 36 63 44 70 4 3 14 21 22 40 18 39 59 112 68 120 3 3 9 12 12 20 4 8 15
29 26 45 18 30 43 72 82 143 12 20 25 42 29 47 4 6 21 35 37 65 16 30 45 81
63 113 l33 59 46 -8 c91 -15 171 0 219 41 17 14 33 25 38 25 7 0 133 -100 219
-175 12 -11 36 -31 53 -44 17 -14 28 -30 25 -35 -3 -6 -3 -8 2 -4 8 7 41 -13
80 -49 11 -10 43 -36 70 -58 64 -51 103 -84 132 -112 13 -13 26 -23 29 -23 12
0 33 -28 26 -35 -4 -5 -2 -5 5 -2 6 4 17 1 25 -6 7 -7 71 -60 142 -117 71 -58
144 -119 163 -137 18 -17 33 -29 33 -26 0 3 9 -4 20 -17 11 -13 20 -20 20 -16
0 4 11 -4 24 -18 14 -16 34 -26 51 -26 16 0 25 3 22 7 -4 3 -2 12 4 19 11 14
-10 38 -86 99 -21 17 -47 38 -59 47 -12 10 -31 26 -42 35 -95 79 -121 100
-136 116 -10 9 -21 17 -24 17 -12 0 -33 28 -26 35 4 5 2 5 -4 2 -6 -4 -25 6
-42 21 -17 15 -39 34 -49 42 -67 54 -139 116 -145 125 -4 5 -8 6 -8 2 0 -4
-10 2 -23 15 -13 13 -42 38 -65 56 -54 45 -84 69 -102 84 -8 7 -41 35 -75 61
-88 70 -94 75 -157 129 l-57 49 19 42 c86 194 -95 415 -307 376z"/>
<path d="M5116 8398 c3 -5 10 -6 15 -3 13 9 11 12 -6 12 -8 0 -12 -4 -9 -9z"/>
<path d="M4633 8365 c0 -8 4 -12 9 -9 5 3 6 10 3 15 -9 13 -12 11 -12 -6z"/>
<path d="M4630 8300 c0 -5 5 -10 11 -10 5 0 7 5 4 10 -3 6 -8 10 -11 10 -2 0
-4 -4 -4 -10z"/>
<path d="M4835 8300 c3 -5 8 -10 11 -10 2 0 4 5 4 10 0 6 -5 10 -11 10 -5 0
-7 -4 -4 -10z"/>
<path d="M4910 8300 c0 -5 5 -10 11 -10 5 0 7 5 4 10 -3 6 -8 10 -11 10 -2 0
-4 -4 -4 -10z"/>
<path d="M4990 8299 c0 -5 5 -7 10 -4 6 3 10 8 10 11 0 2 -4 4 -10 4 -5 0 -10
-5 -10 -11z"/>
<path d="M5835 8221 c-3 -5 -2 -12 3 -15 5 -3 9 1 9 9 0 17 -3 19 -12 6z"/>
<path d="M5193 8185 c0 -8 4 -12 9 -9 5 3 6 10 3 15 -9 13 -12 11 -12 -6z"/>
<path d="M4715 8180 c-3 -5 -1 -10 4 -10 6 0 11 5 11 10 0 6 -2 10 -4 10 -3 0
-8 -4 -11 -10z"/>
<path d="M5436 8173 c-6 -14 -5 -15 5 -6 7 7 10 15 7 18 -3 3 -9 -2 -12 -12z"/>
<path d="M5516 8178 c3 -5 10 -6 15 -3 13 9 11 12 -6 12 -8 0 -12 -4 -9 -9z"/>
<path d="M6156 8182 c-3 -5 1 -9 9 -9 8 0 12 4 9 9 -3 4 -7 8 -9 8 -2 0 -6 -4
-9 -8z"/>
<path d="M6515 8181 c-3 -5 -2 -12 3 -15 5 -3 9 1 9 9 0 17 -3 19 -12 6z"/>
<path d="M6435 8140 c3 -5 8 -10 11 -10 2 0 4 5 4 10 0 6 -5 10 -11 10 -5 0
-7 -4 -4 -10z"/>
<path d="M6550 8101 c0 -6 4 -13 10 -16 6 -3 7 1 4 9 -7 18 -14 21 -14 7z"/>
<path d="M4670 8059 c0 -5 5 -7 10 -4 6 3 10 8 10 11 0 2 -4 4 -10 4 -5 0 -10
-5 -10 -11z"/>
<path d="M5155 8060 c-3 -5 -1 -10 4 -10 6 0 11 5 11 10 0 6 -2 10 -4 10 -3 0
-8 -4 -11 -10z"/>
<path d="M5870 8060 c0 -5 5 -10 11 -10 5 0 7 5 4 10 -3 6 -8 10 -11 10 -2 0
-4 -4 -4 -10z"/>
<path d="M6025 8060 c-3 -6 1 -7 9 -4 18 7 21 14 7 14 -6 0 -13 -4 -16 -10z"/>
<path d="M4990 7979 c0 -5 5 -7 10 -4 6 3 10 8 10 11 0 2 -4 4 -10 4 -5 0 -10
-5 -10 -11z"/>
<path d="M5075 7980 c3 -5 8 -10 11 -10 2 0 4 5 4 10 0 6 -5 10 -11 10 -5 0
-7 -4 -4 -10z"/>
<path d="M5150 7980 c0 -5 5 -10 11 -10 5 0 7 5 4 10 -3 6 -8 10 -11 10 -2 0
-4 -4 -4 -10z"/>
<path d="M5875 7980 c-3 -5 -1 -10 4 -10 6 0 11 5 11 10 0 6 -2 10 -4 10 -3 0
-8 -4 -11 -10z"/>
<path d="M4780 7946 c0 -2 8 -10 18 -17 15 -13 16 -12 3 4 -13 16 -21 21 -21
13z"/>
<path d="M5710 7899 c0 -5 5 -7 10 -4 6 3 10 8 10 11 0 2 -4 4 -10 4 -5 0 -10
-5 -10 -11z"/>
<path d="M6035 7900 c-3 -5 -1 -10 4 -10 6 0 11 5 11 10 0 6 -2 10 -4 10 -3 0
-8 -4 -11 -10z"/>
<path d="M6115 7900 c3 -5 8 -10 11 -10 2 0 4 5 4 10 0 6 -5 10 -11 10 -5 0
-7 -4 -4 -10z"/>
<path d="M5035 7860 c-3 -5 -1 -10 4 -10 6 0 11 5 11 10 0 6 -2 10 -4 10 -3 0
-8 -4 -11 -10z"/>
<path d="M4787 7819 c7 -7 15 -10 18 -7 3 3 -2 9 -12 12 -14 6 -15 5 -6 -5z"/>
<path d="M5630 7820 c0 -5 5 -10 11 -10 5 0 7 5 4 10 -3 6 -8 10 -11 10 -2 0
-4 -4 -4 -10z"/>
<path d="M5710 7819 c0 -5 5 -7 10 -4 6 3 10 8 10 11 0 2 -4 4 -10 4 -5 0 -10
-5 -10 -11z"/>
<path d="M6030 7819 c0 -5 5 -7 10 -4 6 3 10 8 10 11 0 2 -4 4 -10 4 -5 0 -10
-5 -10 -11z"/>
<path d="M4950 7781 c0 -6 4 -13 10 -16 6 -3 7 1 4 9 -7 18 -14 21 -14 7z"/>
<path d="M5334 7782 c4 -3 14 -7 22 -8 9 -1 13 0 10 4 -4 3 -14 7 -22 8 -9 1
-13 0 -10 -4z"/>
<path d="M6294 7782 c4 -3 14 -7 22 -8 9 -1 13 0 10 4 -4 3 -14 7 -22 8 -9 1
-13 0 -10 -4z"/>
<path d="M5919 7728 c-5 -18 -6 -38 -1 -34 7 8 12 36 6 36 -2 0 -4 -1 -5 -2z"/>
<path d="M6313 7705 c0 -8 4 -12 9 -9 5 3 6 10 3 15 -9 13 -12 11 -12 -6z"/>
<path d="M4866 7702 c-3 -5 1 -9 9 -9 8 0 12 4 9 9 -3 4 -7 8 -9 8 -2 0 -6 -4
-9 -8z"/>
<path d="M4950 7701 c0 -6 4 -13 10 -16 6 -3 7 1 4 9 -7 18 -14 21 -14 7z"/>
<path d="M5350 7699 c0 -5 5 -7 10 -4 6 3 10 8 10 11 0 2 -4 4 -10 4 -5 0 -10
-5 -10 -11z"/>
<path d="M5836 7698 c3 -5 10 -6 15 -3 13 9 11 12 -6 12 -8 0 -12 -4 -9 -9z"/>
<path d="M5995 7701 c-3 -5 -2 -12 3 -15 5 -3 9 1 9 9 0 17 -3 19 -12 6z"/>
<path d="M6394 7686 c1 -8 5 -18 8 -22 4 -3 5 1 4 10 -1 8 -5 18 -8 22 -4 3
-5 -1 -4 -10z"/>
<path d="M5187 7619 c7 -7 15 -10 18 -7 3 3 -2 9 -12 12 -14 6 -15 5 -6 -5z"/>
<path d="M5350 7626 c0 -2 7 -7 16 -10 8 -3 12 -2 9 4 -6 10 -25 14 -25 6z"/>
<path d="M4835 7580 c-3 -5 -1 -10 4 -10 6 0 11 5 11 10 0 6 -2 10 -4 10 -3 0
-8 -4 -11 -10z"/>
<path d="M4915 7580 c3 -5 8 -10 11 -10 2 0 4 5 4 10 0 6 -5 10 -11 10 -5 0
-7 -4 -4 -10z"/>
<path d="M5190 7540 c0 -5 5 -10 11 -10 5 0 7 5 4 10 -3 6 -8 10 -11 10 -2 0
-4 -4 -4 -10z"/>
<path d="M5510 7539 c0 -5 5 -7 10 -4 6 3 10 8 10 11 0 2 -4 4 -10 4 -5 0 -10
-5 -10 -11z"/>
<path d="M6155 7541 c-3 -5 -2 -12 3 -15 5 -3 9 1 9 9 0 17 -3 19 -12 6z"/>
<path d="M4827 7519 c7 -7 15 -10 18 -7 3 3 -2 9 -12 12 -14 6 -15 5 -6 -5z"/>
<path d="M6555 7509 c-4 -6 -5 -12 -2 -15 2 -3 7 2 10 11 7 17 1 20 -8 4z"/>
<path d="M5870 7500 c0 -5 5 -10 11 -10 5 0 7 5 4 10 -3 6 -8 10 -11 10 -2 0
-4 -4 -4 -10z"/>
<path d="M4980 7466 c0 -2 8 -10 18 -17 15 -13 16 -12 3 4 -13 16 -21 21 -21
13z"/>
<path d="M6154 7462 c4 -3 14 -7 22 -8 9 -1 13 0 10 4 -4 3 -14 7 -22 8 -9 1
-13 0 -10 -4z"/>
<path d="M6256 7458 c3 -5 10 -6 15 -3 13 9 11 12 -6 12 -8 0 -12 -4 -9 -9z"/>
<path d="M5470 7420 c0 -5 5 -10 11 -10 5 0 7 5 4 10 -3 6 -8 10 -11 10 -2 0
-4 -4 -4 -10z"/>
<path d="M5555 7420 c-3 -5 -1 -10 4 -10 6 0 11 5 11 10 0 6 -2 10 -4 10 -3 0
-8 -4 -11 -10z"/>
<path d="M5870 7419 c0 -5 5 -7 10 -4 6 3 10 8 10 11 0 2 -4 4 -10 4 -5 0 -10
-5 -10 -11z"/>
<path d="M4713 7385 c0 -8 4 -12 9 -9 5 3 6 10 3 15 -9 13 -12 11 -12 -6z"/>
<path d="M6146 7382 c-3 -5 1 -9 9 -9 8 0 12 4 9 9 -3 4 -7 8 -9 8 -2 0 -6 -4
-9 -8z"/>
<path d="M6863 7362 c-13 -2 -31 -14 -41 -27 -11 -14 -21 -23 -23 -20 -2 2 -4
-81 -3 -183 0 -120 -3 -192 -10 -201 -7 -10 -7 -13 -1 -9 14 8 14 -610 1 -631
-6 -9 -5 -12 0 -8 12 7 12 -613 0 -632 -6 -9 -5 -12 0 -8 13 7 12 -613 0 -632
-6 -9 -5 -12 0 -8 13 7 12 -453 0 -472 -6 -9 -5 -12 0 -8 13 7 12 -293 0 -312
-6 -9 -5 -12 0 -8 13 7 12 -773 0 -792 -6 -9 -5 -12 0 -8 13 7 12 -773 0 -792
-6 -9 -5 -12 0 -8 13 7 12 -293 0 -312 -6 -9 -5 -12 1 -8 6 4 9 -38 8 -111 0
-64 3 -122 7 -128 5 -7 38 -10 91 -8 70 3 340 11 445 13 l33 1 -3 95 c-2 52 0
95 4 95 4 0 3 13 -2 29 -5 19 -4 33 3 40 6 6 7 11 1 11 -10 0 -10 152 1 169 3
6 3 11 -2 11 -4 0 -8 23 -8 50 0 28 3 50 7 50 3 0 4 8 1 18 -7 29 -9 582 -1
582 4 0 3 13 -2 29 -5 19 -4 33 3 40 6 6 7 11 1 11 -5 0 -9 36 -9 80 0 44 4
80 8 80 5 0 5 5 1 11 -9 14 -11 109 -2 109 3 0 4 8 1 18 -7 29 -9 582 -1 582
4 0 3 13 -2 29 -5 19 -4 33 3 40 6 6 7 11 2 11 -6 0 -10 36 -10 80 0 44 4 80
8 80 5 0 5 5 1 11 -9 14 -11 109 -2 109 3 0 4 8 1 18 -7 29 -9 582 -1 582 4 0
3 14 -2 30 -5 19 -5 30 1 30 6 0 7 5 3 12 -6 10 -9 138 -4 163 1 6 2 12 1 15
-7 17 -5 110 2 110 5 0 5 5 2 10 -5 9 -7 111 -4 213 0 6 -1 193 -3 415 -2 221
0 402 4 402 4 0 3 13 -2 29 -5 19 -4 33 3 40 6 6 7 11 2 11 -6 0 -10 36 -10
80 0 44 4 80 8 80 5 0 5 5 2 11 -4 5 -6 121 -6 256 2 260 -4 304 -42 325 -20
11 -404 19 -464 10z"/>
<path d="M4835 7340 c3 -5 8 -10 11 -10 2 0 4 5 4 10 0 6 -5 10 -11 10 -5 0
-7 -4 -4 -10z"/>
<path d="M5470 7340 c0 -5 5 -10 11 -10 5 0 7 5 4 10 -3 6 -8 10 -11 10 -2 0
-4 -4 -4 -10z"/>
<path d="M4726 7298 c3 -5 10 -6 15 -3 13 9 11 12 -6 12 -8 0 -12 -4 -9 -9z"/>
<path d="M5110 7266 c0 -2 7 -7 16 -10 8 -3 12 -2 9 4 -6 10 -25 14 -25 6z"/>
<path d="M6195 7260 c-3 -5 -1 -10 4 -10 6 0 11 5 11 10 0 6 -2 10 -4 10 -3 0
-8 -4 -11 -10z"/>
<path d="M6590 7259 c0 -5 5 -7 10 -4 6 3 10 8 10 11 0 2 -4 4 -10 4 -5 0 -10
-5 -10 -11z"/>
<path d="M8270 7260 c0 -5 5 -10 11 -10 5 0 7 5 4 10 -3 6 -8 10 -11 10 -2 0
-4 -4 -4 -10z"/>
<path d="M8515 7260 c-3 -5 -1 -10 4 -10 6 0 11 5 11 10 0 6 -2 10 -4 10 -3 0
-8 -4 -11 -10z"/>
<path d="M5195 7231 c-3 -5 -2 -12 3 -15 5 -3 9 1 9 9 0 17 -3 19 -12 6z"/>
<path d="M5675 7220 c3 -5 8 -10 11 -10 2 0 4 5 4 10 0 6 -5 10 -11 10 -5 0
-7 -4 -4 -10z"/>
<path d="M6595 7180 c3 -5 8 -10 11 -10 2 0 4 5 4 10 0 6 -5 10 -11 10 -5 0
-7 -4 -4 -10z"/>
<path d="M8275 7180 c-3 -5 -1 -10 4 -10 6 0 11 5 11 10 0 6 -2 10 -4 10 -3 0
-8 -4 -11 -10z"/>
<path d="M8435 7180 c3 -5 8 -10 11 -10 2 0 4 5 4 10 0 6 -5 10 -11 10 -5 0
-7 -4 -4 -10z"/>
<path d="M8510 7179 c0 -5 5 -7 10 -4 6 3 10 8 10 11 0 2 -4 4 -10 4 -5 0 -10
-5 -10 -11z"/>
<path d="M4915 7100 c-3 -5 -1 -10 4 -10 6 0 11 5 11 10 0 6 -2 10 -4 10 -3 0
-8 -4 -11 -10z"/>
<path d="M4990 7099 c0 -5 5 -7 10 -4 6 3 10 8 10 11 0 2 -4 4 -10 4 -5 0 -10
-5 -10 -11z"/>
<path d="M5635 7100 c-3 -5 -1 -10 4 -10 6 0 11 5 11 10 0 6 -2 10 -4 10 -3 0
-8 -4 -11 -10z"/>
<path d="M5950 7099 c0 -5 5 -7 10 -4 6 3 10 8 10 11 0 2 -4 4 -10 4 -5 0 -10
-5 -10 -11z"/>
<path d="M8110 7099 c0 -5 5 -7 10 -4 6 3 10 8 10 11 0 2 -4 4 -10 4 -5 0 -10
-5 -10 -11z"/>
<path d="M8270 7099 c0 -5 5 -7 10 -4 6 3 10 8 10 11 0 2 -4 4 -10 4 -5 0 -10
-5 -10 -11z"/>
<path d="M8706 7062 c-3 -5 1 -9 9 -9 8 0 12 4 9 9 -3 4 -7 8 -9 8 -2 0 -6 -4
-9 -8z"/>
<path d="M8953 7055 c0 -8 4 -12 9 -9 5 3 6 10 3 15 -9 13 -12 11 -12 -6z"/>
<path d="M4995 7020 c3 -5 8 -10 11 -10 2 0 4 5 4 10 0 6 -5 10 -11 10 -5 0
-7 -4 -4 -10z"/>
<path d="M5550 7020 c0 -5 5 -10 11 -10 5 0 7 5 4 10 -3 6 -8 10 -11 10 -2 0
-4 -4 -4 -10z"/>
<path d="M5630 7019 c0 -5 5 -7 10 -4 6 3 10 8 10 11 0 2 -4 4 -10 4 -5 0 -10
-5 -10 -11z"/>
<path d="M5950 7019 c0 -5 5 -7 10 -4 6 3 10 8 10 11 0 2 -4 4 -10 4 -5 0 -10
-5 -10 -11z"/>
<path d="M6035 7020 c3 -5 8 -10 11 -10 2 0 4 5 4 10 0 6 -5 10 -11 10 -5 0
-7 -4 -4 -10z"/>
<path d="M8030 7020 c0 -5 5 -10 11 -10 5 0 7 5 4 10 -3 6 -8 10 -11 10 -2 0
-4 -4 -4 -10z"/>
<path d="M8110 7019 c0 -5 5 -7 10 -4 6 3 10 8 10 11 0 2 -4 4 -10 4 -5 0 -10
-5 -10 -11z"/>
<path d="M6444 6982 c4 -3 14 -7 22 -8 9 -1 13 0 10 4 -4 3 -14 7 -22 8 -9 1
-13 0 -10 -4z"/>
<path d="M5150 6939 c0 -5 5 -7 10 -4 6 3 10 8 10 11 0 2 -4 4 -10 4 -5 0 -10
-5 -10 -11z"/>
<path d="M5230 6939 c0 -5 5 -7 10 -4 6 3 10 8 10 11 0 2 -4 4 -10 4 -5 0 -10
-5 -10 -11z"/>
<path d="M5955 6940 c-3 -5 -1 -10 4 -10 6 0 11 5 11 10 0 6 -2 10 -4 10 -3 0
-8 -4 -11 -10z"/>
<path d="M6046 6938 c3 -5 10 -6 15 -3 13 9 11 12 -6 12 -8 0 -12 -4 -9 -9z"/>
<path d="M7887 6939 c7 -7 15 -10 18 -7 3 3 -2 9 -12 12 -14 6 -15 5 -6 -5z"/>
<path d="M8393 6905 c0 -8 4 -12 9 -9 5 3 6 10 3 15 -9 13 -12 11 -12 -6z"/>
<path d="M6554 6896 c1 -8 5 -18 8 -22 4 -3 5 1 4 10 -1 8 -5 18 -8 22 -4 3
-5 -1 -4 -10z"/>
<path d="M8479 6908 c-5 -18 -6 -38 -1 -34 7 8 12 36 6 36 -2 0 -4 -1 -5 -2z"/>
<path d="M8546 6902 c-3 -5 1 -9 9 -9 8 0 12 4 9 9 -3 4 -7 8 -9 8 -2 0 -6 -4
-9 -8z"/>
<path d="M5230 6860 c0 -5 5 -10 11 -10 5 0 7 5 4 10 -3 6 -8 10 -11 10 -2 0
-4 -4 -4 -10z"/>
<path d="M5315 6860 c3 -5 8 -10 11 -10 2 0 4 5 4 10 0 6 -5 10 -11 10 -5 0
-7 -4 -4 -10z"/>
<path d="M5390 6860 c0 -5 5 -10 11 -10 5 0 7 5 4 10 -3 6 -8 10 -11 10 -2 0
-4 -4 -4 -10z"/>
<path d="M5875 6860 c3 -5 8 -10 11 -10 2 0 4 5 4 10 0 6 -5 10 -11 10 -5 0
-7 -4 -4 -10z"/>
<path d="M5950 6860 c0 -5 5 -10 11 -10 5 0 7 5 4 10 -3 6 -8 10 -11 10 -2 0
-4 -4 -4 -10z"/>
<path d="M6275 6860 c-3 -5 -1 -10 4 -10 6 0 11 5 11 10 0 6 -2 10 -4 10 -3 0
-8 -4 -11 -10z"/>
<path d="M8675 6860 c3 -5 8 -10 11 -10 2 0 4 5 4 10 0 6 -5 10 -11 10 -5 0
-7 -4 -4 -10z"/>
<path d="M8755 6860 c-3 -5 -1 -10 4 -10 6 0 11 5 11 10 0 6 -2 10 -4 10 -3 0
-8 -4 -11 -10z"/>
<path d="M7750 6820 c0 -5 5 -10 11 -10 5 0 7 5 4 10 -3 6 -8 10 -11 10 -2 0
-4 -4 -4 -10z"/>
<path d="M4830 6779 c0 -5 5 -7 10 -4 6 3 10 8 10 11 0 2 -4 4 -10 4 -5 0 -10
-5 -10 -11z"/>
<path d="M5395 6780 c-3 -5 -1 -10 4 -10 6 0 11 5 11 10 0 6 -2 10 -4 10 -3 0
-8 -4 -11 -10z"/>
<path d="M6270 6779 c0 -5 5 -7 10 -4 6 3 10 8 10 11 0 2 -4 4 -10 4 -5 0 -10
-5 -10 -11z"/>
<path d="M6350 6780 c0 -5 5 -10 11 -10 5 0 7 5 4 10 -3 6 -8 10 -11 10 -2 0
-4 -4 -4 -10z"/>
<path d="M8355 6780 c-3 -5 -1 -10 4 -10 6 0 11 5 11 10 0 6 -2 10 -4 10 -3 0
-8 -4 -11 -10z"/>
<path d="M8750 6779 c0 -5 5 -7 10 -4 6 3 10 8 10 11 0 2 -4 4 -10 4 -5 0 -10
-5 -10 -11z"/>
<path d="M5513 6745 c0 -8 4 -12 9 -9 5 3 6 10 3 15 -9 13 -12 11 -12 -6z"/>
<path d="M5675 6751 c-3 -5 -2 -12 3 -15 5 -3 9 1 9 9 0 17 -3 19 -12 6z"/>
<path d="M5235 6741 c-3 -5 -2 -12 3 -15 5 -3 9 1 9 9 0 17 -3 19 -12 6z"/>
<path d="M6115 6740 c3 -5 8 -10 11 -10 2 0 4 5 4 10 0 6 -5 10 -11 10 -5 0
-7 -4 -4 -10z"/>
<path d="M7753 6735 c0 -8 4 -12 9 -9 5 3 6 10 3 15 -9 13 -12 11 -12 -6z"/>
<path d="M8275 6700 c3 -5 8 -10 11 -10 2 0 4 5 4 10 0 6 -5 10 -11 10 -5 0
-7 -4 -4 -10z"/>
<path d="M8350 6700 c0 -5 5 -10 11 -10 5 0 7 5 4 10 -3 6 -8 10 -11 10 -2 0
-4 -4 -4 -10z"/>
<path d="M7926 6658 c3 -5 10 -6 15 -3 13 9 11 12 -6 12 -8 0 -12 -4 -9 -9z"/>
<path d="M5475 6620 c-3 -5 -1 -10 4 -10 6 0 11 5 11 10 0 6 -2 10 -4 10 -3 0
-8 -4 -11 -10z"/>
<path d="M5555 6620 c-3 -5 -1 -10 4 -10 6 0 11 5 11 10 0 6 -2 10 -4 10 -3 0
-8 -4 -11 -10z"/>
<path d="M7875 6620 c-3 -5 -1 -10 4 -10 6 0 11 5 11 10 0 6 -2 10 -4 10 -3 0
-8 -4 -11 -10z"/>
<path d="M7955 6620 c3 -5 8 -10 11 -10 2 0 4 5 4 10 0 6 -5 10 -11 10 -5 0
-7 -4 -4 -10z"/>
<path d="M8030 6620 c0 -5 5 -10 11 -10 5 0 7 5 4 10 -3 6 -8 10 -11 10 -2 0
-4 -4 -4 -10z"/>
<path d="M8670 6619 c0 -5 5 -7 10 -4 6 3 10 8 10 11 0 2 -4 4 -10 4 -5 0 -10
-5 -10 -11z"/>
<path d="M8750 6620 c0 -5 5 -10 11 -10 5 0 7 5 4 10 -3 6 -8 10 -11 10 -2 0
-4 -4 -4 -10z"/>
<path d="M5030 6579 c0 -5 5 -7 10 -4 6 3 10 8 10 11 0 2 -4 4 -10 4 -5 0 -10
-5 -10 -11z"/>
<path d="M8876 6578 c3 -5 10 -6 15 -3 13 9 11 12 -6 12 -8 0 -12 -4 -9 -9z"/>
<path d="M4910 6540 c0 -5 5 -10 11 -10 5 0 7 5 4 10 -3 6 -8 10 -11 10 -2 0
-4 -4 -4 -10z"/>
<path d="M8750 6540 c0 -5 5 -10 11 -10 5 0 7 5 4 10 -3 6 -8 10 -11 10 -2 0
-4 -4 -4 -10z"/>
<path d="M9075 6540 c3 -5 8 -10 11 -10 2 0 4 5 4 10 0 6 -5 10 -11 10 -5 0
-7 -4 -4 -10z"/>
<path d="M8315 6509 c-4 -6 -5 -12 -2 -15 2 -3 7 2 10 11 7 17 1 20 -8 4z"/>
<path d="M9567 6494 c-1 -2 -18 -5 -37 -7 -19 -2 -48 -10 -65 -18 -34 -15
-125 -101 -125 -118 0 -6 -4 -11 -8 -11 -5 0 -9 -6 -9 -12 -1 -7 -5 -26 -11
-43 -16 -52 -7 -141 19 -193 44 -87 138 -152 226 -157 56 -2 71 -22 118 -164
25 -75 49 -149 54 -166 4 -16 20 -56 35 -88 34 -72 36 -110 8 -212 -12 -44
-23 -91 -26 -105 -3 -14 -25 -46 -49 -72 -36 -40 -50 -48 -78 -47 l-34 0 30
22 c73 55 125 132 120 177 -18 148 -35 194 -90 236 -20 16 -54 45 -75 64 -63
59 -74 65 -105 64 -43 0 -65 -12 -106 -56 -36 -39 -36 -41 -31 -104 3 -44 1
-64 -7 -64 -6 0 -11 -7 -11 -15 0 -8 -4 -15 -8 -15 -4 0 -9 -12 -11 -27 -8
-68 -2 -112 23 -164 25 -53 26 -89 4 -89 -5 0 -15 14 -21 30 -6 17 -17 30 -25
30 -7 0 -10 5 -6 12 4 7 3 8 -5 4 -6 -4 -19 -2 -28 6 -12 9 -14 9 -9 1 4 -7
-6 -5 -23 5 -17 9 -31 20 -31 25 0 4 -7 7 -15 7 -8 0 -15 5 -15 10 0 6 -5 10
-11 10 -21 0 -75 79 -64 94 3 3 2 4 -1 1 -10 -7 -46 44 -39 55 3 5 -1 10 -9
10 -8 0 -18 9 -21 20 -3 11 -11 20 -16 20 -5 0 -9 5 -9 11 0 5 4 7 10 4 6 -3
7 1 3 10 -4 12 -8 13 -13 5 -5 -8 -12 -5 -23 11 -9 12 -14 26 -11 31 3 4 1 8
-5 8 -6 0 -8 7 -5 15 4 8 1 15 -6 15 -7 0 -10 7 -7 15 4 8 1 17 -4 21 -6 3 -9
15 -6 25 3 11 2 19 -1 19 -4 0 -18 24 -32 53 -14 28 -29 56 -33 62 -10 12 -51
78 -52 85 -1 3 -7 18 -13 33 -7 16 -9 33 -6 39 4 7 2 8 -4 4 -11 -6 -18 19
-13 47 0 4 -3 7 -8 7 -5 0 -12 13 -16 29 -3 16 -13 35 -21 41 -7 7 -11 16 -8
21 3 5 0 9 -6 9 -6 0 -8 5 -5 10 3 6 1 10 -4 10 -6 0 -11 20 -11 46 0 33 3 43
13 38 9 -6 9 -5 0 7 -7 8 -13 31 -15 52 -1 20 -8 39 -16 42 -7 3 -11 9 -8 14
8 13 -29 22 -100 25 -34 2 -67 7 -74 11 -8 5 -11 4 -7 -2 8 -12 -94 -10 -114
3 -7 4 -9 3 -6 -3 8 -12 -94 -10 -114 3 -7 4 -10 3 -6 -2 3 -5 -12 -10 -34
-10 -21 -1 -45 -6 -52 -13 -8 -6 -16 -9 -19 -6 -5 5 -6 2 -14 -68 -5 -43 -8
-46 -23 -35 -15 12 -15 11 -1 -6 13 -16 15 -79 15 -422 0 -246 -3 -400 -9
-397 -5 4 -6 0 0 -8 13 -21 15 -161 2 -153 -7 5 -8 2 -2 -7 4 -7 9 -46 10 -86
2 -62 0 -73 -14 -74 -14 0 -15 -1 -2 -7 23 -10 23 -215 0 -207 -13 4 -13 3 1
-7 13 -11 15 -44 15 -215 0 -120 -4 -199 -10 -196 -5 4 -6 1 0 -8 5 -8 10
-486 11 -1134 1 -616 2 -1137 2 -1158 l1 -37 123 5 c67 2 192 8 277 11 85 3
158 8 161 10 4 2 7 93 7 203 1 109 2 203 3 207 1 5 1 11 0 14 -5 14 -3 209 3
218 3 5 3 12 0 15 -8 7 -7 1345 1 1357 3 5 1 10 -5 10 -8 0 -8 6 0 20 6 11 7
20 3 20 -13 0 -2 110 10 110 7 0 4 5 -6 11 -14 8 -15 14 -7 24 8 9 8 15 0 20
-6 3 -8 10 -5 15 3 5 5 55 5 112 -1 130 -1 87 0 416 1 204 4 282 12 282 7 0 4
6 -7 13 -13 10 -15 16 -6 21 9 6 9 11 0 22 -6 8 -7 14 -3 14 5 0 8 20 6 45 -3
33 0 45 9 45 9 0 7 4 -4 11 -14 8 -15 14 -7 24 8 9 8 15 0 20 -6 3 -7 11 -4
17 4 6 6 40 4 77 -1 36 -2 73 -1 81 0 8 1 78 1 155 l1 140 19 -60 c13 -41 16
-61 8 -66 -7 -5 -7 -8 1 -10 6 -2 12 -13 14 -24 1 -11 6 -26 10 -32 5 -7 6
-13 3 -13 -3 0 6 -32 20 -70 14 -39 22 -75 19 -80 -3 -6 1 -7 9 -4 15 6 22
-11 17 -38 0 -5 4 -8 10 -8 5 0 7 -4 4 -10 -3 -5 -1 -10 5 -10 6 0 8 -4 5 -10
-3 -5 -1 -10 6 -10 6 0 9 -8 6 -20 -3 -10 -2 -18 2 -17 3 1 7 -3 9 -8 2 -6 11
-18 19 -27 9 -10 13 -18 8 -18 -4 0 -2 -6 4 -13 6 -8 8 -17 4 -20 -3 -4 -2 -7
3 -7 9 0 40 -88 36 -102 -1 -5 2 -8 6 -8 4 0 13 -15 20 -33 7 -18 21 -43 32
-55 12 -12 17 -22 13 -22 -4 0 2 -6 12 -14 15 -11 18 -25 16 -77 -1 -38 2 -59
7 -51 7 10 11 10 21 -2 7 -8 14 -23 16 -33 2 -10 4 -20 5 -23 6 -15 4 -47 -2
-62 -5 -10 -3 -20 3 -24 8 -4 7 -9 -2 -15 -8 -5 -9 -9 -4 -9 6 0 12 -17 13
-37 3 -46 9 -87 12 -90 7 -8 4 -29 -5 -35 -6 -5 -6 -8 2 -8 9 0 11 -23 8 -92
-5 -103 -6 -107 -29 -193 -26 -94 -27 -98 -32 -130 -15 -107 -8 -145 28 -145
38 0 68 -12 61 -23 -3 -6 -1 -7 5 -3 6 4 22 0 35 -9 19 -12 23 -23 21 -48 -4
-46 -12 -102 -15 -102 -1 0 -3 -22 -4 -50 -2 -27 -4 -52 -5 -55 -1 -3 -2 -8
-1 -12 0 -5 1 -245 0 -298 0 -53 10 -238 14 -255 3 -11 15 -47 26 -80 11 -34
22 -88 25 -120 3 -33 7 -69 9 -80 2 -11 7 -40 12 -65 4 -25 9 -54 12 -65 3
-11 5 -26 5 -32 1 -7 4 -13 7 -13 4 0 5 -42 3 -92 -8 -223 -7 -241 33 -422 15
-73 23 -137 22 -188 -2 -61 1 -79 13 -84 13 -5 13 -6 -1 -14 -8 -5 -26 -11
-40 -14 -38 -7 -56 -16 -57 -29 0 -7 -3 -22 -5 -33 -9 -36 26 -80 72 -91 24
-7 43 -7 47 -2 3 5 9 7 13 5 4 -3 52 9 107 25 54 17 106 32 114 33 28 6 70 25
70 34 0 4 15 7 33 7 17 -1 46 3 62 7 17 5 37 11 45 13 8 1 40 11 70 20 30 9
73 22 94 29 22 7 44 21 50 31 6 11 17 25 24 33 15 16 16 32 2 32 -5 0 -10 11
-10 25 0 14 4 25 9 25 19 0 38 72 29 109 -5 20 -11 95 -13 166 -2 72 -9 153
-15 180 -11 52 -16 89 -25 190 -3 33 -8 78 -11 100 -3 22 -7 58 -8 81 -2 23
-6 45 -8 50 -3 5 -4 18 -2 29 2 11 7 79 10 150 4 72 12 136 18 144 8 11 8 13
0 8 -15 -9 -24 49 -30 183 -7 170 -8 178 -48 330 -2 8 -11 35 -20 60 -8 25
-16 60 -16 78 0 18 0 46 0 64 0 17 -5 37 -11 44 -6 7 -8 18 -5 23 4 5 2 12 -3
15 -5 3 -12 22 -16 42 -3 20 -10 44 -15 53 -10 19 -22 51 -26 69 -1 8 -5 16
-8 19 -2 3 -1 15 3 27 5 12 3 36 -4 56 -12 36 1 134 41 295 15 61 21 116 23
192 1 12 13 35 27 53 25 29 26 35 20 106 -4 41 -2 91 3 112 9 35 15 75 27 167
11 82 10 211 -2 250 -11 37 -83 194 -94 205 -3 3 -20 34 -39 70 -19 36 -39 68
-45 72 -6 4 -7 8 -3 8 4 0 -1 10 -13 22 -11 12 -20 27 -21 32 -6 68 -6 71 29
101 68 60 115 166 105 240 -7 55 -9 60 -16 73 -5 6 -5 12 -2 12 7 0 -30 55
-57 84 -10 11 -18 24 -18 28 0 5 -4 6 -10 3 -5 -3 -10 -2 -10 4 0 19 -168 69
-183 55z m8 -3065 c3 -19 8 -47 11 -63 4 -16 7 -43 9 -60 1 -17 5 -38 8 -46 7
-17 36 -173 39 -207 1 -7 5 -13 9 -13 4 0 6 -8 4 -17 -1 -10 2 -24 8 -30 5 -7
6 -13 2 -13 -4 0 -2 -7 5 -15 7 -8 9 -15 5 -15 -4 0 -3 -6 2 -12 14 -17 38
-90 34 -103 -7 -25 -2 -97 9 -109 15 -19 24 -66 33 -172 2 -23 6 -45 9 -50 5
-9 3 -38 -6 -79 -2 -11 -5 -20 -6 -20 -1 0 -4 -11 -6 -25 -3 -14 -7 -38 -10
-55 -3 -16 -6 -45 -7 -62 -1 -18 -4 -33 -7 -33 -8 0 -14 -131 -7 -165 6 -32
-25 -78 -56 -82 -17 -2 -27 1 -28 9 -1 7 -3 22 -4 33 -2 11 -5 53 -7 92 -2 40
-6 73 -10 73 -4 0 -6 8 -6 18 1 9 -2 28 -6 41 -6 18 -5 22 5 15 11 -6 12 -5 2
7 -6 8 -14 37 -18 64 -12 77 -12 79 -39 154 -14 39 -23 71 -20 71 4 0 2 6 -4
13 -17 20 -34 137 -33 217 4 188 12 295 21 295 7 0 12 58 15 157 3 116 11 196
22 232 4 16 7 17 14 4 4 -8 11 -30 14 -49z"/>
<path d="M4910 6459 c0 -5 5 -7 10 -4 6 3 10 8 10 11 0 2 -4 4 -10 4 -5 0 -10
-5 -10 -11z"/>
<path d="M6270 6459 c0 -5 5 -7 10 -4 6 3 10 8 10 11 0 2 -4 4 -10 4 -5 0 -10
-5 -10 -11z"/>
<path d="M6350 6459 c0 -5 5 -7 10 -4 6 3 10 8 10 11 0 2 -4 4 -10 4 -5 0 -10
-5 -10 -11z"/>
<path d="M6556 6433 c-6 -14 -5 -15 5 -6 7 7 10 15 7 18 -3 3 -9 -2 -12 -12z"/>
<path d="M5275 6429 c-4 -6 -5 -12 -2 -15 2 -3 7 2 10 11 7 17 1 20 -8 4z"/>
<path d="M8473 6425 c0 -8 4 -12 9 -9 5 3 6 10 3 15 -9 13 -12 11 -12 -6z"/>
<path d="M9110 6436 c0 -2 8 -10 18 -17 15 -13 16 -12 3 4 -13 16 -21 21 -21
13z"/>
<path d="M5190 6419 c0 -5 5 -7 10 -4 6 3 10 8 10 11 0 2 -4 4 -10 4 -5 0 -10
-5 -10 -11z"/>
<path d="M8316 6413 c-6 -14 -5 -15 5 -6 7 7 10 15 7 18 -3 3 -9 -2 -12 -12z"/>
<path d="M8395 6420 c3 -5 8 -10 11 -10 2 0 4 5 4 10 0 6 -5 10 -11 10 -5 0
-7 -4 -4 -10z"/>
<path d="M5075 6380 c3 -5 8 -10 11 -10 2 0 4 5 4 10 0 6 -5 10 -11 10 -5 0
-7 -4 -4 -10z"/>
<path d="M6350 6380 c0 -5 5 -10 11 -10 5 0 7 5 4 10 -3 6 -8 10 -11 10 -2 0
-4 -4 -4 -10z"/>
<path d="M8126 6338 c3 -5 10 -6 15 -3 13 9 11 12 -6 12 -8 0 -12 -4 -9 -9z"/>
<path d="M9035 6341 c-3 -5 -2 -12 3 -15 5 -3 9 1 9 9 0 17 -3 19 -12 6z"/>
<path d="M4995 6300 c-3 -5 -1 -10 4 -10 6 0 11 5 11 10 0 6 -2 10 -4 10 -3 0
-8 -4 -11 -10z"/>
<path d="M5075 6300 c3 -5 8 -10 11 -10 2 0 4 5 4 10 0 6 -5 10 -11 10 -5 0
-7 -4 -4 -10z"/>
<path d="M6590 6299 c0 -5 5 -7 10 -4 6 3 10 8 10 11 0 2 -4 4 -10 4 -5 0 -10
-5 -10 -11z"/>
<path d="M4866 6258 c3 -5 10 -6 15 -3 13 9 11 12 -6 12 -8 0 -12 -4 -9 -9z"/>
<path d="M6310 6260 c0 -5 5 -10 11 -10 5 0 7 5 4 10 -3 6 -8 10 -11 10 -2 0
-4 -4 -4 -10z"/>
<path d="M6595 6220 c3 -5 8 -10 11 -10 2 0 4 5 4 10 0 6 -5 10 -11 10 -5 0
-7 -4 -4 -10z"/>
<path d="M4875 6179 c-3 -4 2 -6 10 -5 21 3 28 13 10 13 -9 0 -18 -4 -20 -8z"/>
<path d="M5390 6139 c0 -5 5 -7 10 -4 6 3 10 8 10 11 0 2 -4 4 -10 4 -5 0 -10
-5 -10 -11z"/>
<path d="M5310 6060 c0 -5 5 -10 11 -10 5 0 7 5 4 10 -3 6 -8 10 -11 10 -2 0
-4 -4 -4 -10z"/>
<path d="M5390 6060 c0 -5 5 -10 11 -10 5 0 7 5 4 10 -3 6 -8 10 -11 10 -2 0
-4 -4 -4 -10z"/>
<path d="M5955 6060 c3 -5 8 -10 11 -10 2 0 4 5 4 10 0 6 -5 10 -11 10 -5 0
-7 -4 -4 -10z"/>
<path d="M6035 6060 c-3 -5 -1 -10 4 -10 6 0 11 5 11 10 0 6 -2 10 -4 10 -3 0
-8 -4 -11 -10z"/>
<path d="M8835 6060 c3 -5 8 -10 11 -10 2 0 4 5 4 10 0 6 -5 10 -11 10 -5 0
-7 -4 -4 -10z"/>
<path d="M8910 6060 c0 -5 5 -10 11 -10 5 0 7 5 4 10 -3 6 -8 10 -11 10 -2 0
-4 -4 -4 -10z"/>
<path d="M4790 6036 c0 -2 8 -10 18 -17 15 -13 16 -12 3 4 -13 16 -21 21 -21
13z"/>
<path d="M3110 6016 c7 -7 13 -7 20 0 6 6 3 10 -10 10 -13 0 -16 -4 -10 -10z"/>
<path d="M2990 5980 c0 -5 5 -10 11 -10 5 0 7 5 4 10 -3 6 -8 10 -11 10 -2 0
-4 -4 -4 -10z"/>
<path d="M4755 5980 c-3 -5 -1 -10 4 -10 6 0 11 5 11 10 0 6 -2 10 -4 10 -3 0
-8 -4 -11 -10z"/>
<path d="M5790 5979 c0 -5 5 -7 10 -4 6 3 10 8 10 11 0 2 -4 4 -10 4 -5 0 -10
-5 -10 -11z"/>
<path d="M5870 5980 c0 -5 5 -10 11 -10 5 0 7 5 4 10 -3 6 -8 10 -11 10 -2 0
-4 -4 -4 -10z"/>
<path d="M5435 5949 c-4 -6 -5 -12 -2 -15 2 -3 7 2 10 11 7 17 1 20 -8 4z"/>
<path d="M3116 5942 c-3 -5 1 -9 9 -9 8 0 12 4 9 9 -3 4 -7 8 -9 8 -2 0 -6 -4
-9 -8z"/>
<path d="M5350 5939 c0 -5 5 -7 10 -4 6 3 10 8 10 11 0 2 -4 4 -10 4 -5 0 -10
-5 -10 -11z"/>
<path d="M5996 5938 c3 -5 10 -6 15 -3 13 9 11 12 -6 12 -8 0 -12 -4 -9 -9z"/>
<path d="M8875 5940 c-3 -5 -1 -10 4 -10 6 0 11 5 11 10 0 6 -2 10 -4 10 -3 0
-8 -4 -11 -10z"/>
<path d="M4285 5912 c-48 -8 -72 -24 -81 -55 -6 -19 -10 -508 -9 -1225 0 -657
-3 -1196 -8 -1199 -4 -2 -4 -10 0 -16 4 -7 8 -320 9 -697 1 -377 2 -687 3
-690 0 -3 81 -7 179 -9 97 -1 224 -3 282 -4 l105 -2 0 78 c0 42 4 77 8 77 5 0
5 5 1 12 -4 7 -7 30 -6 52 2 23 2 47 2 54 0 6 0 32 0 57 0 64 0 70 -1 170 0
50 0 95 1 100 2 6 1 15 0 20 -2 12 -2 128 1 141 1 5 1 11 0 14 -7 18 -4 180 2
180 5 0 5 5 1 12 -4 7 -7 30 -6 52 3 56 3 49 0 159 -2 53 1 97 5 97 5 0 5 5 1
12 -4 7 -7 30 -6 52 2 23 2 48 2 56 0 8 0 47 0 86 -1 39 0 75 1 80 1 5 0 14
-1 19 -2 12 -2 128 1 141 1 5 0 14 -1 19 -1 6 -1 53 -1 105 1 52 1 101 1 108
0 6 0 32 0 57 0 25 0 52 0 60 0 8 0 35 0 60 0 25 0 52 0 60 0 8 0 35 0 60 0
64 0 70 -1 170 0 50 0 95 1 100 2 6 1 15 0 20 -4 21 0 136 5 145 3 5 2 11 -2
13 -5 3 -7 40 -5 84 1 43 3 84 2 91 0 18 0 100 1 115 0 6 -1 56 -3 110 -2 53
1 97 5 97 5 0 5 5 1 12 -4 7 -7 30 -6 52 3 49 3 54 0 131 -2 44 1 63 12 73 13
11 13 11 0 7 -21 -7 -21 55 0 73 13 11 13 11 0 7 -21 -7 -21 55 0 73 13 11 13
11 0 7 -13 -4 -15 11 -14 105 2 103 0 111 -23 136 l-24 26 -207 2 c-114 1
-216 0 -227 -2z"/>
<path d="M6275 5900 c-3 -5 -1 -10 4 -10 6 0 11 5 11 10 0 6 -2 10 -4 10 -3 0
-8 -4 -11 -10z"/>
<path d="M8030 5899 c0 -5 5 -7 10 -4 6 3 10 8 10 11 0 2 -4 4 -10 4 -5 0 -10
-5 -10 -11z"/>
<path d="M2790 5859 c0 -5 5 -7 10 -4 6 3 10 8 10 11 0 2 -4 4 -10 4 -5 0 -10
-5 -10 -11z"/>
<path d="M3720 5820 c-9 -6 -10 -10 -3 -10 6 0 15 5 18 10 8 12 4 12 -15 0z"/>
<path d="M4995 5820 c-3 -5 -1 -10 4 -10 6 0 11 5 11 10 0 6 -2 10 -4 10 -3 0
-8 -4 -11 -10z"/>
<path d="M5075 5820 c3 -5 8 -10 11 -10 2 0 4 5 4 10 0 6 -5 10 -11 10 -5 0
-7 -4 -4 -10z"/>
<path d="M6270 5819 c0 -5 5 -7 10 -4 6 3 10 8 10 11 0 2 -4 4 -10 4 -5 0 -10
-5 -10 -11z"/>
<path d="M6350 5820 c0 -5 5 -10 11 -10 5 0 7 5 4 10 -3 6 -8 10 -11 10 -2 0
-4 -4 -4 -10z"/>
<path d="M5599 5808 c-5 -18 -6 -38 -1 -34 7 8 12 36 6 36 -2 0 -4 -1 -5 -2z"/>
<path d="M2714 5780 c0 -13 4 -16 10 -10 7 7 7 13 0 20 -6 6 -10 3 -10 -10z"/>
<path d="M4795 5791 c-3 -5 -2 -12 3 -15 5 -3 9 1 9 9 0 17 -3 19 -12 6z"/>
<path d="M2796 5782 c-3 -5 1 -9 9 -9 8 0 12 4 9 9 -3 4 -7 8 -9 8 -2 0 -6 -4
-9 -8z"/>
<path d="M3590 5780 c0 -5 5 -10 11 -10 5 0 7 5 4 10 -3 6 -8 10 -11 10 -2 0
-4 -4 -4 -10z"/>
<path d="M4870 5779 c0 -5 5 -7 10 -4 6 3 10 8 10 11 0 2 -4 4 -10 4 -5 0 -10
-5 -10 -11z"/>
<path d="M5436 5773 c-6 -14 -5 -15 5 -6 7 7 10 15 7 18 -3 3 -9 -2 -12 -12z"/>
<path d="M5515 5780 c3 -5 8 -10 11 -10 2 0 4 5 4 10 0 6 -5 10 -11 10 -5 0
-7 -4 -4 -10z"/>
<path d="M6476 5782 c-3 -5 1 -9 9 -9 8 0 12 4 9 9 -3 4 -7 8 -9 8 -2 0 -6 -4
-9 -8z"/>
<path d="M7750 5779 c0 -5 5 -7 10 -4 6 3 10 8 10 11 0 2 -4 4 -10 4 -5 0 -10
-5 -10 -11z"/>
<path d="M5150 5659 c0 -5 5 -7 10 -4 6 3 10 8 10 11 0 2 -4 4 -10 4 -5 0 -10
-5 -10 -11z"/>
<path d="M5230 5659 c0 -5 5 -7 10 -4 6 3 10 8 10 11 0 2 -4 4 -10 4 -5 0 -10
-5 -10 -11z"/>
<path d="M7875 5660 c-3 -5 -1 -10 4 -10 6 0 11 5 11 10 0 6 -2 10 -4 10 -3 0
-8 -4 -11 -10z"/>
<path d="M6153 5625 c0 -8 4 -12 9 -9 5 3 6 10 3 15 -9 13 -12 11 -12 -6z"/>
<path d="M5355 5620 c3 -5 8 -10 11 -10 2 0 4 5 4 10 0 6 -5 10 -11 10 -5 0
-7 -4 -4 -10z"/>
<path d="M5835 5621 c-3 -5 -2 -12 3 -15 5 -3 9 1 9 9 0 17 -3 19 -12 6z"/>
<path d="M6239 5628 c-5 -18 -6 -38 -1 -34 7 8 12 36 6 36 -2 0 -4 -1 -5 -2z"/>
<path d="M6306 5622 c-3 -5 1 -9 9 -9 8 0 12 4 9 9 -3 4 -7 8 -9 8 -2 0 -6 -4
-9 -8z"/>
<path d="M9026 5618 c3 -5 10 -6 15 -3 13 9 11 12 -6 12 -8 0 -12 -4 -9 -9z"/>
<path d="M7995 5601 c-3 -5 -2 -12 3 -15 5 -3 9 1 9 9 0 17 -3 19 -12 6z"/>
<path d="M6675 5589 c-4 -6 -5 -12 -2 -15 2 -3 7 2 10 11 7 17 1 20 -8 4z"/>
<path d="M5230 5580 c0 -5 5 -10 11 -10 5 0 7 5 4 10 -3 6 -8 10 -11 10 -2 0
-4 -4 -4 -10z"/>
<path d="M7795 5580 c3 -5 8 -10 11 -10 2 0 4 5 4 10 0 6 -5 10 -11 10 -5 0
-7 -4 -4 -10z"/>
<path d="M7870 5580 c0 -5 5 -10 11 -10 5 0 7 5 4 10 -3 6 -8 10 -11 10 -2 0
-4 -4 -4 -10z"/>
<path d="M2630 5546 c0 -2 7 -7 16 -10 8 -3 12 -2 9 4 -6 10 -25 14 -25 6z"/>
<path d="M5834 5542 c4 -3 14 -7 22 -8 9 -1 13 0 10 4 -4 3 -14 7 -22 8 -9 1
-13 0 -10 -4z"/>
<path d="M3470 5500 c0 -5 5 -10 11 -10 5 0 7 5 4 10 -3 6 -8 10 -11 10 -2 0
-4 -4 -4 -10z"/>
<path d="M3555 5500 c-3 -5 -1 -10 4 -10 6 0 11 5 11 10 0 6 -2 10 -4 10 -3 0
-8 -4 -11 -10z"/>
<path d="M3635 5500 c3 -5 8 -10 11 -10 2 0 4 5 4 10 0 6 -5 10 -11 10 -5 0
-7 -4 -4 -10z"/>
<path d="M5630 5499 c0 -5 5 -7 10 -4 6 3 10 8 10 11 0 2 -4 4 -10 4 -5 0 -10
-5 -10 -11z"/>
<path d="M9075 5500 c3 -5 8 -10 11 -10 2 0 4 5 4 10 0 6 -5 10 -11 10 -5 0
-7 -4 -4 -10z"/>
<path d="M3915 5461 c-3 -5 -2 -12 3 -15 5 -3 9 1 9 9 0 17 -3 19 -12 6z"/>
<path d="M4876 5462 c-3 -5 1 -9 9 -9 8 0 12 4 9 9 -3 4 -7 8 -9 8 -2 0 -6 -4
-9 -8z"/>
<path d="M5826 5462 c-3 -5 1 -9 9 -9 8 0 12 4 9 9 -3 4 -7 8 -9 8 -2 0 -6 -4
-9 -8z"/>
<path d="M8753 5425 c0 -8 4 -12 9 -9 5 3 6 10 3 15 -9 13 -12 11 -12 -6z"/>
<path d="M3555 5420 c-3 -5 -1 -10 4 -10 6 0 11 5 11 10 0 6 -2 10 -4 10 -3 0
-8 -4 -11 -10z"/>
<path d="M5635 5420 c3 -5 8 -10 11 -10 2 0 4 5 4 10 0 6 -5 10 -11 10 -5 0
-7 -4 -4 -10z"/>
<path d="M5715 5420 c3 -5 8 -10 11 -10 2 0 4 5 4 10 0 6 -5 10 -11 10 -5 0
-7 -4 -4 -10z"/>
<path d="M5955 5420 c3 -5 8 -10 11 -10 2 0 4 5 4 10 0 6 -5 10 -11 10 -5 0
-7 -4 -4 -10z"/>
<path d="M6030 5420 c0 -5 5 -10 11 -10 5 0 7 5 4 10 -3 6 -8 10 -11 10 -2 0
-4 -4 -4 -10z"/>
<path d="M6110 5419 c0 -5 5 -7 10 -4 6 3 10 8 10 11 0 2 -4 4 -10 4 -5 0 -10
-5 -10 -11z"/>
<path d="M5347 5379 c7 -7 15 -10 18 -7 3 3 -2 9 -12 12 -14 6 -15 5 -6 -5z"/>
<path d="M5420 5386 c0 -2 8 -10 18 -17 15 -13 16 -12 3 4 -13 16 -21 21 -21
13z"/>
<path d="M6456 5378 c3 -5 10 -6 15 -3 13 9 11 12 -6 12 -8 0 -12 -4 -9 -9z"/>
<path d="M2755 5340 c3 -5 8 -10 11 -10 2 0 4 5 4 10 0 6 -5 10 -11 10 -5 0
-7 -4 -4 -10z"/>
<path d="M3475 5340 c3 -5 8 -10 11 -10 2 0 4 5 4 10 0 6 -5 10 -11 10 -5 0
-7 -4 -4 -10z"/>
<path d="M3555 5340 c3 -5 8 -10 11 -10 2 0 4 5 4 10 0 6 -5 10 -11 10 -5 0
-7 -4 -4 -10z"/>
<path d="M6550 5346 c0 -2 7 -7 16 -10 8 -3 12 -2 9 4 -6 10 -25 14 -25 6z"/>
<path d="M8710 5339 c0 -5 5 -7 10 -4 6 3 10 8 10 11 0 2 -4 4 -10 4 -5 0 -10
-5 -10 -11z"/>
<path d="M2630 5300 c0 -5 5 -10 11 -10 5 0 7 5 4 10 -3 6 -8 10 -11 10 -2 0
-4 -4 -4 -10z"/>
<path d="M5355 5300 c-3 -5 -1 -10 4 -10 6 0 11 5 11 10 0 6 -2 10 -4 10 -3 0
-8 -4 -11 -10z"/>
<path d="M5510 5300 c0 -5 5 -10 11 -10 5 0 7 5 4 10 -3 6 -8 10 -11 10 -2 0
-4 -4 -4 -10z"/>
<path d="M6155 5300 c3 -5 8 -10 11 -10 2 0 4 5 4 10 0 6 -5 10 -11 10 -5 0
-7 -4 -4 -10z"/>
<path d="M2755 5260 c-3 -5 -1 -10 4 -10 6 0 11 5 11 10 0 6 -2 10 -4 10 -3 0
-8 -4 -11 -10z"/>
<path d="M2835 5260 c-3 -5 -1 -10 4 -10 6 0 11 5 11 10 0 6 -2 10 -4 10 -3 0
-8 -4 -11 -10z"/>
<path d="M3235 5260 c-3 -5 -1 -10 4 -10 6 0 11 5 11 10 0 6 -2 10 -4 10 -3 0
-8 -4 -11 -10z"/>
<path d="M3470 5259 c0 -5 5 -7 10 -4 6 3 10 8 10 11 0 2 -4 4 -10 4 -5 0 -10
-5 -10 -11z"/>
<path d="M5070 5260 c0 -5 5 -10 11 -10 5 0 7 5 4 10 -3 6 -8 10 -11 10 -2 0
-4 -4 -4 -10z"/>
<path d="M3734 5222 c4 -3 14 -7 22 -8 9 -1 13 0 10 4 -4 3 -14 7 -22 8 -9 1
-13 0 -10 -4z"/>
<path d="M5075 5180 c3 -5 8 -10 11 -10 2 0 4 5 4 10 0 6 -5 10 -11 10 -5 0
-7 -4 -4 -10z"/>
<path d="M6110 5180 c0 -5 5 -10 11 -10 5 0 7 5 4 10 -3 6 -8 10 -11 10 -2 0
-4 -4 -4 -10z"/>
<path d="M6190 5180 c0 -5 5 -10 11 -10 5 0 7 5 4 10 -3 6 -8 10 -11 10 -2 0
-4 -4 -4 -10z"/>
<path d="M7870 5179 c0 -5 5 -7 10 -4 6 3 10 8 10 11 0 2 -4 4 -10 4 -5 0 -10
-5 -10 -11z"/>
<path d="M7950 5179 c0 -5 5 -7 10 -4 6 3 10 8 10 11 0 2 -4 4 -10 4 -5 0 -10
-5 -10 -11z"/>
<path d="M8710 5179 c0 -5 5 -7 10 -4 6 3 10 8 10 11 0 2 -4 4 -10 4 -5 0 -10
-5 -10 -11z"/>
<path d="M3753 5145 c0 -8 4 -12 9 -9 5 3 6 10 3 15 -9 13 -12 11 -12 -6z"/>
<path d="M2953 5135 c0 -8 4 -12 9 -9 5 3 6 10 3 15 -9 13 -12 11 -12 -6z"/>
<path d="M5786 5132 c-4 -4 -60 -7 -123 -7 l-116 -1 -27 -32 c-25 -31 -27 -39
-26 -117 2 -52 -2 -82 -7 -78 -6 4 -7 1 -1 -8 14 -23 17 -62 3 -53 -8 5 -9 3
-4 -6 12 -20 14 -74 3 -87 -6 -7 -6 -13 -1 -13 11 0 11 -1890 0 -1907 -5 -7
-4 -13 0 -13 5 0 9 -179 9 -397 l-1 -398 215 0 c118 0 223 3 233 8 9 4 17 4
17 0 0 -7 27 -8 97 -4 9 1 11 365 10 1531 -2 1288 -4 1532 -16 1539 -7 5 -11
14 -7 20 4 7 1 9 -8 5 -8 -3 -21 -2 -28 2 -7 5 -53 9 -103 9 -49 0 -95 3 -101
7 -6 4 -14 4 -18 0z"/>
<path d="M3875 5109 c-4 -6 -5 -12 -2 -15 2 -3 7 2 10 11 7 17 1 20 -8 4z"/>
<path d="M5070 5099 c0 -5 5 -7 10 -4 6 3 10 8 10 11 0 2 -4 4 -10 4 -5 0 -10
-5 -10 -11z"/>
<path d="M6195 5100 c-3 -5 -1 -10 4 -10 6 0 11 5 11 10 0 6 -2 10 -4 10 -3 0
-8 -4 -11 -10z"/>
<path d="M7950 5100 c0 -5 5 -10 11 -10 5 0 7 5 4 10 -3 6 -8 10 -11 10 -2 0
-4 -4 -4 -10z"/>
<path d="M3750 5060 c0 -5 5 -10 10 -10 6 0 10 5 10 10 0 6 -4 10 -10 10 -5 0
-10 -4 -10 -10z"/>
<path d="M3833 5055 c0 -8 4 -12 9 -9 5 3 6 10 3 15 -9 13 -12 11 -12 -6z"/>
<path d="M8846 5062 c-3 -5 1 -9 9 -9 8 0 12 4 9 9 -3 4 -7 8 -9 8 -2 0 -6 -4
-9 -8z"/>
<path d="M5390 5019 c0 -5 5 -7 10 -4 6 3 10 8 10 11 0 2 -4 4 -10 4 -5 0 -10
-5 -10 -11z"/>
<path d="M7667 5019 c7 -7 15 -10 18 -7 3 3 -2 9 -12 12 -14 6 -15 5 -6 -5z"/>
<path d="M7995 4991 c-3 -5 -2 -12 3 -15 5 -3 9 1 9 9 0 17 -3 19 -12 6z"/>
<path d="M3106 4978 c3 -5 10 -6 15 -3 13 9 11 12 -6 12 -8 0 -12 -4 -9 -9z"/>
<path d="M3190 4981 c0 -6 4 -13 10 -16 6 -3 7 1 4 9 -7 18 -14 21 -14 7z"/>
<path d="M3430 4979 c0 -5 5 -7 10 -4 6 3 10 8 10 11 0 2 -4 4 -10 4 -5 0 -10
-5 -10 -11z"/>
<path d="M3755 4980 c-3 -5 -1 -10 4 -10 6 0 11 5 11 10 0 6 -2 10 -4 10 -3 0
-8 -4 -11 -10z"/>
<path d="M5310 4940 c0 -5 5 -10 11 -10 5 0 7 5 4 10 -3 6 -8 10 -11 10 -2 0
-4 -4 -4 -10z"/>
<path d="M5390 4939 c0 -5 5 -7 10 -4 6 3 10 8 10 11 0 2 -4 4 -10 4 -5 0 -10
-5 -10 -11z"/>
<path d="M8750 4939 c0 -5 5 -7 10 -4 6 3 10 8 10 11 0 2 -4 4 -10 4 -5 0 -10
-5 -10 -11z"/>
<path d="M2755 4860 c-3 -5 -1 -10 4 -10 6 0 11 5 11 10 0 6 -2 10 -4 10 -3 0
-8 -4 -11 -10z"/>
<path d="M2835 4860 c3 -5 8 -10 11 -10 2 0 4 5 4 10 0 6 -5 10 -11 10 -5 0
-7 -4 -4 -10z"/>
<path d="M3395 4860 c-3 -5 -1 -10 4 -10 6 0 11 5 11 10 0 6 -2 10 -4 10 -3 0
-8 -4 -11 -10z"/>
<path d="M3475 4860 c-3 -5 -1 -10 4 -10 6 0 11 5 11 10 0 6 -2 10 -4 10 -3 0
-8 -4 -11 -10z"/>
<path d="M7710 4859 c0 -5 5 -7 10 -4 6 3 10 8 10 11 0 2 -4 4 -10 4 -5 0 -10
-5 -10 -11z"/>
<path d="M8755 4860 c-3 -5 -1 -10 4 -10 6 0 11 5 11 10 0 6 -2 10 -4 10 -3 0
-8 -4 -11 -10z"/>
<path d="M8830 4860 c0 -5 5 -10 11 -10 5 0 7 5 4 10 -3 6 -8 10 -11 10 -2 0
-4 -4 -4 -10z"/>
<path d="M2626 4822 c-3 -5 1 -9 9 -9 8 0 12 4 9 9 -3 4 -7 8 -9 8 -2 0 -6 -4
-9 -8z"/>
<path d="M7995 4811 c-3 -5 -2 -12 3 -15 5 -3 9 1 9 9 0 17 -3 19 -12 6z"/>
<path d="M3390 4780 c0 -5 5 -10 11 -10 5 0 7 5 4 10 -3 6 -8 10 -11 10 -2 0
-4 -4 -4 -10z"/>
<path d="M7710 4779 c0 -5 5 -7 10 -4 6 3 10 8 10 11 0 2 -4 4 -10 4 -5 0 -10
-5 -10 -11z"/>
<path d="M7795 4780 c3 -5 8 -10 11 -10 2 0 4 5 4 10 0 6 -5 10 -11 10 -5 0
-7 -4 -4 -10z"/>
<path d="M3835 4711 c-3 -5 -2 -12 3 -15 5 -3 9 1 9 9 0 17 -3 19 -12 6z"/>
<path d="M2750 4699 c0 -5 5 -7 10 -4 6 3 10 8 10 11 0 2 -4 4 -10 4 -5 0 -10
-5 -10 -11z"/>
<path d="M2830 4700 c0 -5 5 -10 11 -10 5 0 7 5 4 10 -3 6 -8 10 -11 10 -2 0
-4 -4 -4 -10z"/>
<path d="M3155 4700 c-3 -5 -1 -10 4 -10 6 0 11 5 11 10 0 6 -2 10 -4 10 -3 0
-8 -4 -11 -10z"/>
<path d="M3230 4699 c0 -5 5 -7 10 -4 6 3 10 8 10 11 0 2 -4 4 -10 4 -5 0 -10
-5 -10 -11z"/>
<path d="M3310 4700 c0 -5 5 -10 11 -10 5 0 7 5 4 10 -3 6 -8 10 -11 10 -2 0
-4 -4 -4 -10z"/>
<path d="M3395 4700 c-3 -5 -1 -10 4 -10 6 0 11 5 11 10 0 6 -2 10 -4 10 -3 0
-8 -4 -11 -10z"/>
<path d="M3475 4700 c3 -5 8 -10 11 -10 2 0 4 5 4 10 0 6 -5 10 -11 10 -5 0
-7 -4 -4 -10z"/>
<path d="M7715 4700 c-3 -5 -1 -10 4 -10 6 0 11 5 11 10 0 6 -2 10 -4 10 -3 0
-8 -4 -11 -10z"/>
<path d="M8875 4660 c-3 -5 -1 -10 4 -10 6 0 11 5 11 10 0 6 -2 10 -4 10 -3 0
-8 -4 -11 -10z"/>
<path d="M2830 4620 c0 -5 5 -10 11 -10 5 0 7 5 4 10 -3 6 -8 10 -11 10 -2 0
-4 -4 -4 -10z"/>
<path d="M3395 4620 c-3 -5 -1 -10 4 -10 6 0 11 5 11 10 0 6 -2 10 -4 10 -3 0
-8 -4 -11 -10z"/>
<path d="M7710 4619 c0 -5 5 -7 10 -4 6 3 10 8 10 11 0 2 -4 4 -10 4 -5 0 -10
-5 -10 -11z"/>
<path d="M7673 4595 c0 -8 4 -12 9 -9 5 3 6 10 3 15 -9 13 -12 11 -12 -6z"/>
<path d="M3513 4545 c0 -8 4 -12 9 -9 5 3 6 10 3 15 -9 13 -12 11 -12 -6z"/>
<path d="M7715 4540 c3 -5 8 -10 11 -10 2 0 4 5 4 10 0 6 -5 10 -11 10 -5 0
-7 -4 -4 -10z"/>
<path d="M3039 4528 c-5 -18 -6 -38 -1 -34 7 8 12 36 6 36 -2 0 -4 -1 -5 -2z"/>
<path d="M3837 4513 c-10 -9 -9 -23 1 -23 5 0 9 7 9 15 0 17 -1 18 -10 8z"/>
<path d="M2956 4498 c3 -5 10 -6 15 -3 13 9 11 12 -6 12 -8 0 -12 -4 -9 -9z"/>
<path d="M7916 4498 c3 -5 10 -6 15 -3 13 9 11 12 -6 12 -8 0 -12 -4 -9 -9z"/>
<path d="M8000 4500 c-9 -6 -10 -10 -3 -10 6 0 15 5 18 10 8 12 4 12 -15 0z"/>
<path d="M8750 4459 c0 -5 5 -7 10 -4 6 3 10 8 10 11 0 2 -4 4 -10 4 -5 0 -10
-5 -10 -11z"/>
<path d="M2934 4384 c-18 -12 -34 -21 -36 -19 -2 2 -4 -509 -3 -1135 0 -1009
2 -1140 15 -1141 8 0 22 -2 30 -3 14 -3 113 -10 325 -22 50 -2 114 -7 142 -9
48 -5 53 -3 57 18 3 12 4 151 3 309 -2 253 0 285 13 275 13 -11 13 -10 1 6
-20 25 -20 165 0 178 12 7 11 9 -1 9 -21 0 -20 218 1 231 11 7 11 9 -3 9 -16
0 -18 26 -3 50 3 6 2 10 -3 10 -10 0 -9 30 2 48 4 7 2 12 -6 12 -9 0 -9 3 2
10 8 5 10 10 4 10 -12 0 -12 29 0 48 4 7 2 12 -6 12 -9 0 -9 3 2 10 8 5 10 10
4 10 -12 0 -12 29 0 48 4 7 2 12 -6 12 -9 0 -9 3 2 10 8 5 10 10 4 10 -12 0
-12 29 0 48 4 6 3 12 -3 12 -5 0 -8 8 -6 18 2 9 4 21 4 25 1 5 7 5 14 2 6 -4
5 -1 -3 7 -19 17 -19 46 0 58 13 9 13 10 0 10 -21 0 -20 218 1 231 12 7 11 9
-1 9 -21 0 -20 218 1 231 12 7 11 9 -1 9 -20 0 -19 138 1 151 11 7 11 9 -2 9
-12 0 -15 10 -12 53 3 60 -11 113 -33 121 -8 3 -13 9 -11 13 3 5 -99 8 -226 8
-221 1 -232 0 -263 -21z"/>
<path d="M7795 4380 c3 -5 8 -10 11 -10 2 0 4 5 4 10 0 6 -5 10 -11 10 -5 0
-7 -4 -4 -10z"/>
<path d="M2626 4342 c-3 -5 1 -9 9 -9 8 0 12 4 9 9 -3 4 -7 8 -9 8 -2 0 -6 -4
-9 -8z"/>
<path d="M2755 4300 c3 -5 8 -10 11 -10 2 0 4 5 4 10 0 6 -5 10 -11 10 -5 0
-7 -4 -4 -10z"/>
<path d="M2835 4300 c-3 -5 -1 -10 4 -10 6 0 11 5 11 10 0 6 -2 10 -4 10 -3 0
-8 -4 -11 -10z"/>
<path d="M7785 4300 c-3 -6 1 -7 9 -4 18 7 21 14 7 14 -6 0 -13 -4 -16 -10z"/>
<path d="M2835 4220 c-3 -5 -1 -10 4 -10 6 0 11 5 11 10 0 6 -2 10 -4 10 -3 0
-8 -4 -11 -10z"/>
<path d="M3710 4219 c0 -5 5 -7 10 -4 6 3 10 8 10 11 0 2 -4 4 -10 4 -5 0 -10
-5 -10 -11z"/>
<path d="M3790 4220 c0 -5 5 -10 11 -10 5 0 7 5 4 10 -3 6 -8 10 -11 10 -2 0
-4 -4 -4 -10z"/>
<path d="M3876 4222 c-3 -5 1 -9 9 -9 8 0 12 4 9 9 -3 4 -7 8 -9 8 -2 0 -6 -4
-9 -8z"/>
<path d="M3790 4140 c0 -5 5 -10 11 -10 5 0 7 5 4 10 -3 6 -8 10 -11 10 -2 0
-4 -4 -4 -10z"/>
<path d="M3525 4099 c-3 -4 2 -6 10 -5 21 3 28 13 10 13 -9 0 -18 -4 -20 -8z"/>
<path d="M3510 4020 c0 -5 5 -10 11 -10 5 0 7 5 4 10 -3 6 -8 10 -11 10 -2 0
-4 -4 -4 -10z"/>
<path d="M3710 3980 c0 -5 5 -10 11 -10 5 0 7 5 4 10 -3 6 -8 10 -11 10 -2 0
-4 -4 -4 -10z"/>
<path d="M3790 3981 c0 -6 4 -13 10 -16 6 -3 7 1 4 9 -7 18 -14 21 -14 7z"/>
<path d="M2707 3939 c7 -7 15 -10 18 -7 3 3 -2 9 -12 12 -14 6 -15 5 -6 -5z"/>
<path d="M1874 3901 c-2 -3 -15 -6 -27 -8 -106 -15 -232 -157 -236 -266 -1
-12 -5 -16 -13 -11 -10 6 -10 4 -2 -7 6 -8 11 -27 12 -44 1 -16 5 -41 8 -55 4
-14 7 -35 8 -47 0 -11 4 -19 8 -17 4 3 16 -12 25 -32 14 -28 15 -38 6 -41 -7
-3 -13 -11 -13 -18 0 -7 -5 -15 -11 -17 -6 -2 2 -10 18 -18 15 -8 31 -19 35
-25 4 -5 8 -7 8 -2 0 4 17 -3 38 -16 20 -13 51 -29 67 -36 l30 -11 -30 4 c-16
3 -43 10 -60 16 -16 6 -32 12 -35 12 -3 0 -22 7 -43 15 -40 16 -49 14 -54 -15
-7 -35 -6 -128 1 -144 4 -9 9 -22 10 -30 1 -7 12 -32 24 -55 l21 -41 -24 -46
c-27 -51 -39 -102 -37 -161 1 -36 8 -80 12 -80 1 0 3 -8 5 -17 5 -25 40 -80
69 -107 14 -13 23 -28 20 -33 -3 -5 -2 -7 3 -6 4 1 31 -10 60 -25 29 -15 59
-27 66 -27 17 0 31 -105 17 -129 -4 -8 -5 -24 -1 -35 6 -18 7 -102 2 -212 l-1
-31 -67 -2 c-37 -1 -81 -4 -98 -6 -16 -2 -52 -7 -78 -10 -142 -17 -247 -54
-247 -86 0 -112 717 -154 1040 -62 149 43 114 100 -85 138 -60 12 -219 27
-295 28 -35 1 -35 2 -41 51 -3 28 -2 68 2 88 3 21 4 40 1 43 -3 3 -5 47 -3 98
1 50 2 100 2 110 0 9 7 18 15 18 61 6 149 72 194 148 37 61 58 190 38 231 -4
8 -18 41 -32 73 l-25 57 22 37 c12 21 23 46 24 57 2 11 10 33 18 48 7 16 9 26
4 23 -5 -4 -7 4 -5 17 2 13 -1 31 -6 42 -7 12 -7 16 0 12 14 -8 -27 105 -45
125 -9 11 -12 26 -8 42 7 25 5 26 -54 33 -80 9 -71 16 17 15 l70 0 12 47 c14
50 19 120 11 137 -3 6 -7 19 -8 30 -6 35 -19 37 -67 10 -25 -14 -46 -22 -46
-18 0 4 -4 3 -8 -3 -6 -10 -81 -49 -117 -62 -15 -6 180 133 203 145 6 2 -28
63 -36 63 -4 0 -23 15 -42 33 -34 31 -81 53 -138 63 -40 8 -102 10 -108 5z"/>
<path d="M2626 3862 c-3 -5 1 -9 9 -9 8 0 12 4 9 9 -3 4 -7 8 -9 8 -2 0 -6 -4
-9 -8z"/>
<path d="M2716 3853 c-6 -14 -5 -15 5 -6 7 7 10 15 7 18 -3 3 -9 -2 -12 -12z"/>
<path d="M2795 3860 c-3 -5 -1 -10 4 -10 6 0 11 5 11 10 0 6 -2 10 -4 10 -3 0
-8 -4 -11 -10z"/>
<path d="M3710 3820 c0 -5 5 -10 11 -10 5 0 7 5 4 10 -3 6 -8 10 -11 10 -2 0
-4 -4 -4 -10z"/>
<path d="M3796 3807 c3 -10 9 -15 12 -12 3 3 0 11 -7 18 -10 9 -11 8 -5 -6z"/>
<path d="M3746 3702 c-3 -5 1 -9 9 -9 8 0 12 4 9 9 -3 4 -7 8 -9 8 -2 0 -6 -4
-9 -8z"/>
<path d="M3826 3698 c3 -5 10 -6 15 -3 13 9 11 12 -6 12 -8 0 -12 -4 -9 -9z"/>
<path d="M2755 3660 c-3 -5 -1 -10 4 -10 6 0 11 5 11 10 0 6 -2 10 -4 10 -3 0
-8 -4 -11 -10z"/>
<path d="M2830 3659 c0 -5 5 -7 10 -4 6 3 10 8 10 11 0 2 -4 4 -10 4 -5 0 -10
-5 -10 -11z"/>
<path d="M2755 3580 c3 -5 8 -10 11 -10 2 0 4 5 4 10 0 6 -5 10 -11 10 -5 0
-7 -4 -4 -10z"/>
<path d="M2430 3499 c0 -5 5 -7 10 -4 6 3 10 8 10 11 0 2 -4 4 -10 4 -5 0 -10
-5 -10 -11z"/>
<path d="M3550 3499 c0 -5 5 -7 10 -4 6 3 10 8 10 11 0 2 -4 4 -10 4 -5 0 -10
-5 -10 -11z"/>
<path d="M3555 3420 c-3 -5 -1 -10 4 -10 6 0 11 5 11 10 0 6 -2 10 -4 10 -3 0
-8 -4 -11 -10z"/>
<path d="M3635 3420 c3 -5 8 -10 11 -10 2 0 4 5 4 10 0 6 -5 10 -11 10 -5 0
-7 -4 -4 -10z"/>
<path d="M3710 3420 c0 -5 5 -10 11 -10 5 0 7 5 4 10 -3 6 -8 10 -11 10 -2 0
-4 -4 -4 -10z"/>
<path d="M2635 3380 c3 -5 8 -10 11 -10 2 0 4 5 4 10 0 6 -5 10 -11 10 -5 0
-7 -4 -4 -10z"/>
<path d="M3753 3215 c0 -8 4 -12 9 -9 5 3 6 10 3 15 -9 13 -12 11 -12 -6z"/>
<path d="M955 3140 c3 -5 8 -10 11 -10 2 0 4 5 4 10 0 6 -5 10 -11 10 -5 0 -7
-4 -4 -10z"/>
<path d="M3510 3059 c0 -5 5 -7 10 -4 6 3 10 8 10 11 0 2 -4 4 -10 4 -5 0 -10
-5 -10 -11z"/>
<path d="M2633 3025 c0 -8 4 -12 9 -9 5 3 6 10 3 15 -9 13 -12 11 -12 -6z"/>
<path d="M2750 3019 c0 -5 5 -7 10 -4 6 3 10 8 10 11 0 2 -4 4 -10 4 -5 0 -10
-5 -10 -11z"/>
<path d="M2835 3020 c3 -5 8 -10 11 -10 2 0 4 5 4 10 0 6 -5 10 -11 10 -5 0
-7 -4 -4 -10z"/>
<path d="M2795 2900 c-3 -5 -1 -10 4 -10 6 0 11 5 11 10 0 6 -2 10 -4 10 -3 0
-8 -4 -11 -10z"/>
<path d="M590 2741 c0 -6 4 -13 10 -16 6 -3 7 1 4 9 -7 18 -14 21 -14 7z"/>
<path d="M2488 2465 c-1 -2 -21 -5 -43 -6 -22 -2 -59 -12 -83 -22 -49 -21 -73
-27 -120 -29 -29 -1 -33 -4 -28 -22 3 -12 6 -28 6 -37 0 -23 31 -54 60 -63 33
-9 134 -20 192 -20 25 -1 44 -4 43 -7 -6 -9 58 1 82 13 21 10 21 11 5 47 -9
20 -22 42 -29 49 -7 7 -22 30 -34 52 -20 35 -41 54 -51 45z"/>
<path d="M10829 2359 c-20 -5 -48 -10 -62 -13 -14 -2 -55 -17 -89 -33 -35 -15
-65 -28 -68 -29 -3 0 -21 -4 -40 -7 -43 -9 -96 -15 -132 -16 -29 -1 -29 -1
-12 -86 9 -43 39 -98 61 -111 19 -12 92 -28 168 -39 23 -3 52 -7 65 -10 40 -8
221 -19 302 -19 61 1 82 5 98 19 36 32 20 78 -76 217 -29 43 -55 86 -59 97
-10 32 -80 45 -156 30z"/>
</g>
</svg>
